<?xml version="1.0" encoding="UTF-8" standalone="no"?>
<!-- Created with Inkscape (http://www.inkscape.org/) -->

<svg
   xmlns:dc="http://purl.org/dc/elements/1.1/"
   xmlns:cc="http://creativecommons.org/ns#"
   xmlns:rdf="http://www.w3.org/1999/02/22-rdf-syntax-ns#"
   xmlns:svg="http://www.w3.org/2000/svg"
   xmlns="http://www.w3.org/2000/svg"
   xmlns:sodipodi="http://sodipodi.sourceforge.net/DTD/sodipodi-0.dtd"
   xmlns:inkscape="http://www.inkscape.org/namespaces/inkscape"
   width="200"
   height="200"
   id="svg2"
   version="1.1"
   inkscape:version="0.48.4 r"
   sodipodi:docname="dice_7.svg">
  <defs
     id="defs4" />
  <sodipodi:namedview
     id="base"
     pagecolor="#ffffff"
     bordercolor="#666666"
     borderopacity="1.0"
     inkscape:pageopacity="0.0"
     inkscape:pageshadow="2"
     inkscape:zoom="1.9975767"
     inkscape:cx="38.326924"
     inkscape:cy="81.305406"
     inkscape:document-units="px"
     inkscape:current-layer="layer5"
     showgrid="false"
     inkscape:window-width="1302"
     inkscape:window-height="748"
     inkscape:window-x="-6"
     inkscape:window-y="-6"
     inkscape:window-maximized="1"
     showguides="true"
     inkscape:guide-bbox="true" />
  <metadata
     id="metadata7">
    <rdf:RDF>
      <cc:Work
         rdf:about="">
        <dc:format>image/svg+xml</dc:format>
        <dc:type
           rdf:resource="http://purl.org/dc/dcmitype/StillImage" />
        <dc:title />
      </cc:Work>
    </rdf:RDF>
  </metadata>
  <g
     inkscape:label="Botton-Right"
     inkscape:groupmode="layer"
     id="layer1"
     transform="translate(0,-852.36218)"
     style="display:none">
    <path
       sodipodi:type="arc"
       style="fill:#000000;fill-opacity:1;stroke:#ffffff;stroke-width:4;stroke-linecap:round;stroke-linejoin:round;stroke-miterlimit:4;stroke-opacity:1;stroke-dasharray:none;stroke-dashoffset:0"
       id="path2987-0"
       sodipodi:cx="81.317284"
       sodipodi:cy="84.842613"
       sodipodi:rx="20.708128"
       sodipodi:ry="20.708128"
       d="m 102.02541,84.842613 c 0,11.436783 -9.271343,20.708127 -20.708126,20.708127 -11.436784,0 -20.708128,-9.271344 -20.708128,-20.708127 0,-11.436783 9.271344,-20.708128 20.708128,-20.708128 11.436783,0 20.708126,9.271345 20.708126,20.708128 z"
       transform="matrix(1.1009273,0,0,1.1009274,65.475581,913.95662)" />
  </g>
  <g
     inkscape:groupmode="layer"
     id="layer7"
     inkscape:label="Botton-Left"
     style="display:none">
    <path
       sodipodi:type="arc"
       style="fill:#000000;fill-opacity:1;stroke:#ffffff;stroke-width:4;stroke-linecap:round;stroke-linejoin:round;stroke-miterlimit:4;stroke-opacity:1;stroke-dasharray:none;stroke-dashoffset:0"
       id="path2987-3"
       sodipodi:cx="81.317284"
       sodipodi:cy="84.842613"
       sodipodi:rx="20.708128"
       sodipodi:ry="20.708128"
       d="m 102.02541,84.842613 a 20.708128,20.708128 0 1 1 -41.416254,0 20.708128,20.708128 0 1 1 41.416254,0 z"
       transform="matrix(1.1009273,0,0,1.1009274,-44.524419,61.59444)" />
  </g>
  <g
     inkscape:groupmode="layer"
     id="layer6"
     inkscape:label="M-Right"
     style="display:none">
    <path
       sodipodi:type="arc"
       style="fill:#000000;fill-opacity:1;stroke:#ffffff;stroke-width:4;stroke-linecap:round;stroke-linejoin:round;stroke-miterlimit:4;stroke-opacity:1;stroke-dasharray:none;stroke-dashoffset:0"
       id="path2987-22"
       sodipodi:cx="81.317284"
       sodipodi:cy="84.842613"
       sodipodi:rx="20.708128"
       sodipodi:ry="20.708128"
       d="m 102.02541,84.842613 a 20.708128,20.708128 0 1 1 -41.416254,0 20.708128,20.708128 0 1 1 41.416254,0 z"
       transform="matrix(1.1009273,0,0,1.1009274,65.475581,6.5944426)" />
  </g>
  <g
     inkscape:groupmode="layer"
     id="layer5"
     inkscape:label="Center"
     style="display:none">
    <path
       sodipodi:type="arc"
       style="fill:#000000;fill-opacity:1;stroke:#ffffff;stroke-width:4;stroke-linecap:round;stroke-linejoin:round;stroke-miterlimit:4;stroke-opacity:1;stroke-dasharray:none;stroke-dashoffset:0"
       id="path2987"
       sodipodi:cx="81.317284"
       sodipodi:cy="84.842613"
       sodipodi:rx="20.708128"
       sodipodi:ry="20.708128"
       d="m 102.02541,84.842613 a 20.708128,20.708128 0 1 1 -41.416254,0 20.708128,20.708128 0 1 1 41.416254,0 z"
       transform="matrix(1.1009273,0,0,1.1009274,10.475581,6.5944426)" />
  </g>
  <g
     inkscape:groupmode="layer"
     id="layer4"
     inkscape:label="M-Left"
     style="display:none">
    <path
       sodipodi:type="arc"
       style="fill:#000000;fill-opacity:1;stroke:#ffffff;stroke-width:4;stroke-linecap:round;stroke-linejoin:round;stroke-miterlimit:4;stroke-opacity:1;stroke-dasharray:none;stroke-dashoffset:0"
       id="path2987-1"
       sodipodi:cx="81.317284"
       sodipodi:cy="84.842613"
       sodipodi:rx="20.708128"
       sodipodi:ry="20.708128"
       d="m 102.02541,84.842613 a 20.708128,20.708128 0 1 1 -41.416254,0 20.708128,20.708128 0 1 1 41.416254,0 z"
       transform="matrix(1.1009273,0,0,1.1009274,-44.524419,6.5944426)" />
  </g>
  <g
     inkscape:groupmode="layer"
     id="layer2"
     inkscape:label="Top-Left"
     style="display:none">
    <path
       sodipodi:type="arc"
       style="fill:#000000;fill-opacity:1;stroke:#ffffff;stroke-width:4;stroke-linecap:round;stroke-linejoin:round;stroke-miterlimit:4;stroke-opacity:1;stroke-dasharray:none;stroke-dashoffset:0"
       id="path2987-2"
       sodipodi:cx="81.317284"
       sodipodi:cy="84.842613"
       sodipodi:rx="20.708128"
       sodipodi:ry="20.708128"
       d="m 102.02541,84.842613 a 20.708128,20.708128 0 1 1 -41.416254,0 20.708128,20.708128 0 1 1 41.416254,0 z"
       transform="matrix(1.1009273,0,0,1.1009274,-44.524419,-48.405558)" />
  </g>
  <g
     inkscape:groupmode="layer"
     id="layer3"
     inkscape:label="Top-Right"
     style="display:none">
    <path
       sodipodi:type="arc"
       style="fill:#000000;fill-opacity:1;stroke:#ffffff;stroke-width:4;stroke-linecap:round;stroke-linejoin:round;stroke-miterlimit:4;stroke-opacity:1;stroke-dasharray:none;stroke-dashoffset:0"
       id="path2987-9"
       sodipodi:cx="81.317284"
       sodipodi:cy="84.842613"
       sodipodi:rx="20.708128"
       sodipodi:ry="20.708128"
       d="m 102.02541,84.842613 a 20.708128,20.708128 0 1 1 -41.416254,0 20.708128,20.708128 0 1 1 41.416254,0 z"
       transform="matrix(1.1009273,0,0,1.1009274,65.475581,-48.405558)" />
  </g>
</svg>
